<svg width="121" height="34" viewBox="0 0 121 34" fill="none" xmlns="http://www.w3.org/2000/svg">
    <path d="M11.4616 2.3335L12.1201 1.39073L11.4616 0.930716L10.803 1.39073L11.4616 2.3335ZM2.46296 8.61922L1.80441 7.67645L0.476757 8.60385L1.7899 9.55168L2.46296 8.61922ZM20.4601 8.61922H21.6101V8.01974L21.1187 7.67645L20.4601 8.61922ZM20.4601 21.6097L19.7871 22.5422L21.6101 23.8581V21.6097H20.4601ZM19.6598 25.3811L20.3305 26.3153L21.6282 25.3837L20.3329 24.4487L19.6598 25.3811ZM1.66309 12.3907L2.33616 11.4582L0.513086 10.1423V12.3907H1.66309ZM10.9047 31.6669L10.2579 32.6178L10.9225 33.0698L11.5753 32.601L10.9047 31.6669ZM1.66309 25.3811H0.513086V25.9898L1.01633 26.332L1.66309 25.3811ZM10.803 1.39073L1.80441 7.67645L3.12151 9.56199L12.1201 3.27627L10.803 1.39073ZM21.1187 7.67645L12.1201 1.39073L10.803 3.27627L19.8016 9.56199L21.1187 7.67645ZM21.6101 21.6097V8.61922H19.3101V21.6097H21.6101ZM1.7899 9.55168L19.7871 22.5422L21.1332 20.6772L3.13602 7.68675L1.7899 9.55168ZM20.3329 24.4487L2.33616 11.4582L0.990015 13.3231L18.9867 26.3136L20.3329 24.4487ZM11.5753 32.601L20.3305 26.3153L18.9891 24.447L10.234 30.7327L11.5753 32.601ZM1.01633 26.332L10.2579 32.6178L11.5514 30.716L2.30985 24.4303L1.01633 26.332ZM0.513086 12.3907V25.3811H2.81309V12.3907H0.513086Z" fill="url(#paint0_linear_7013_22521)"/>
    <path d="M31.6522 25.5V8.7H34.8682L44.7802 20.796H43.2202V8.7H47.0602V25.5H43.8682L33.9322 13.404H35.4922V25.5H31.6522ZM51.035 25.5V8.7H54.923V25.5H51.035ZM58.91 25.5V8.7H67.118C69.23 8.7 70.814 9.1 71.87 9.9C72.942 10.7 73.478 11.756 73.478 13.068C73.478 13.948 73.262 14.716 72.83 15.372C72.398 16.012 71.806 16.508 71.054 16.86C70.302 17.212 69.438 17.388 68.462 17.388L68.918 16.404C69.974 16.404 70.91 16.58 71.726 16.932C72.542 17.268 73.174 17.772 73.622 18.444C74.086 19.116 74.318 19.94 74.318 20.916C74.318 22.356 73.75 23.484 72.614 24.3C71.478 25.1 69.806 25.5 67.598 25.5H58.91ZM62.774 22.572H67.31C68.318 22.572 69.078 22.412 69.59 22.092C70.118 21.756 70.382 21.228 70.382 20.508C70.382 19.804 70.118 19.284 69.59 18.948C69.078 18.596 68.318 18.42 67.31 18.42H62.486V15.588H66.638C67.582 15.588 68.302 15.428 68.798 15.108C69.31 14.772 69.566 14.268 69.566 13.596C69.566 12.94 69.31 12.452 68.798 12.132C68.302 11.796 67.582 11.628 66.638 11.628H62.774V22.572ZM77.2615 25.5V8.7H81.1495V25.5H77.2615ZM85.1365 25.5V8.7H92.4085C93.9125 8.7 95.2085 8.948 96.2965 9.444C97.3845 9.924 98.2245 10.62 98.8165 11.532C99.4085 12.444 99.7045 13.532 99.7045 14.796C99.7045 16.044 99.4085 17.124 98.8165 18.036C98.2245 18.932 97.3845 19.62 96.2965 20.1C95.2085 20.58 93.9125 20.82 92.4085 20.82H87.2965L89.0245 19.116V25.5H85.1365ZM95.8165 25.5L91.6165 19.404H95.7685L100.017 25.5H95.8165ZM89.0245 19.548L87.2965 17.724H92.1925C93.3925 17.724 94.2885 17.468 94.8805 16.956C95.4725 16.428 95.7685 15.708 95.7685 14.796C95.7685 13.868 95.4725 13.148 94.8805 12.636C94.2885 12.124 93.3925 11.868 92.1925 11.868H87.2965L89.0245 10.02V19.548ZM110.249 25.788C107.865 25.788 106.001 25.124 104.657 23.796C103.313 22.468 102.641 20.572 102.641 18.108V8.7H106.529V17.964C106.529 19.564 106.857 20.716 107.513 21.42C108.169 22.124 109.089 22.476 110.273 22.476C111.457 22.476 112.377 22.124 113.033 21.42C113.689 20.716 114.017 19.564 114.017 17.964V8.7H117.857V18.108C117.857 20.572 117.185 22.468 115.841 23.796C114.497 25.124 112.633 25.788 110.249 25.788Z" fill="url(#paint1_linear_7013_22521)"/>
    <defs>
        <linearGradient id="paint0_linear_7013_22521" x1="23.8659" y1="44.7462" x2="-5.74328" y2="-1.31087" gradientUnits="userSpaceOnUse">
            <stop stop-color="#FEF3CC"/>
            <stop offset="0.234375" stop-color="#D2BBC4"/>
            <stop offset="0.473958" stop-color="#B689D3"/>
            <stop offset="0.697917" stop-color="#9493FF"/>
            <stop offset="1" stop-color="#4C1CB2"/>
        </linearGradient>
        <linearGradient id="paint1_linear_7013_22521" x1="137.148" y1="44.4307" x2="128.843" y2="-18.8314" gradientUnits="userSpaceOnUse">
            <stop stop-color="#FEF3CC"/>
            <stop offset="0.234375" stop-color="#D2BBC4"/>
            <stop offset="0.473958" stop-color="#B689D3"/>
            <stop offset="0.697917" stop-color="#9493FF"/>
            <stop offset="1" stop-color="#4C1CB2"/>
        </linearGradient>
    </defs>
</svg>